<svg xmlns="http://www.w3.org/2000/svg" viewBox="0 0 1536 1024" width="1536" height="1024">
<defs>
<radialGradient id="bg" cx="30%" cy="18%" r="120%">
  <stop offset="0" stop-color="#182337"/>
  <stop offset="45%" stop-color="#101827"/>
  <stop offset="100%" stop-color="#0b111c"/>
</radialGradient>
<linearGradient id="steelline" x1="0" y1="0" x2="1" y2="0">
  <stop offset="0" stop-color="#6f8faf" stop-opacity="0"/>
  <stop offset="0.5" stop-color="#9cc0e6"/>
  <stop offset="1" stop-color="#6f8faf" stop-opacity="0"/>
</linearGradient>
<linearGradient id="chartfill" x1="0" y1="0" x2="0" y2="1">
  <stop offset="0" stop-color="#6f8faf" stop-opacity="0.35"/>
  <stop offset="1" stop-color="#6f8faf" stop-opacity="0"/>
</linearGradient>
<filter id="soft" x="-60%" y="-60%" width="220%" height="220%">
  <feGaussianBlur stdDeviation="14"/>
</filter>
<filter id="soft28" x="-80%" y="-80%" width="260%" height="260%">
  <feGaussianBlur stdDeviation="28"/>
</filter>
<filter id="grain">
  <feTurbulence type="fractalNoise" baseFrequency="0.9" numOctaves="2" stitchTiles="stitch"/>
  <feColorMatrix type="matrix" values="0 0 0 0 1  0 0 0 0 1  0 0 0 0 1  0 0 0 0.02 0"/>
  <feComposite operator="over" in2="SourceGraphic"/>
</filter>
<pattern id="grid" width="64" height="64" patternUnits="userSpaceOnUse">
  <path d="M64 0H0V64" fill="none" stroke="#2a3852" stroke-opacity="0.35" stroke-width="1"/>
</pattern>
</defs>
<rect width="1536" height="1024" fill="url(#bg)"/>
<rect width="1536" height="1024" fill="url(#grid)" opacity="0.5"/>
<radialGradient id="orb1"><stop offset="0" stop-color="#6f8faf" stop-opacity="0.11200000000000002"/><stop offset="1" stop-color="#6f8faf" stop-opacity="0"/></radialGradient><circle cx="1050" cy="430" r="416" fill="url(#orb1)"/><radialGradient id="orb2"><stop offset="0" stop-color="#3d5a7a" stop-opacity="0.1"/><stop offset="1" stop-color="#3d5a7a" stop-opacity="0"/></radialGradient><circle cx="430" cy="700" r="320" fill="url(#orb2)"/><path d="M-20 520 L-8 520 L4 521 L17 522 L29 524 L41 527 L53 530 L65 533 L78 536 L90 540 L102 545 L114 549 L126 554 L139 558 L151 563 L163 568 L175 573 L187 577 L200 582 L212 586 L224 590 L236 593 L248 596 L261 599 L273 601 L285 603 L297 605 L309 605 L322 606 L334 605 L346 605 L358 603 L370 602 L383 600 L395 597 L407 594 L419 591 L431 588 L444 584 L456 580 L468 576 L480 571 L492 567 L505 563 L517 558 L529 554 L541 550 L553 545 L566 541 L578 538 L590 534 L602 530 L614 527 L627 524 L639 521 L651 519 L663 516 L675 514 L688 512 L700 510 L712 508 L724 507 L736 505 L749 504 L761 502 L773 500 L785 499 L797 497 L810 495 L822 493 L834 491 L846 489 L858 487 L871 484 L883 482 L895 479 L907 476 L919 473 L932 469 L944 466 L956 463 L968 459 L980 455 L993 452 L1005 449 L1017 445 L1029 442 L1041 439 L1054 436 L1066 434 L1078 431 L1090 430 L1102 428 L1115 427 L1127 426 L1139 426 L1151 426 L1163 427 L1176 428 L1188 430 L1200 432 L1212 435 L1224 438 L1237 441 L1249 445 L1261 449 L1273 454 L1285 458 L1298 463 L1310 468 L1322 474 L1334 479 L1346 484 L1359 489 L1371 494 L1383 499 L1395 503 L1407 507 L1420 511 L1432 514 L1444 517 L1456 520 L1468 522 L1481 523 L1493 524 L1505 524 L1517 524 L1529 523 L1542 522 L1554 520" fill="none" stroke="url(#steelline)" stroke-width="7" opacity="0.5" stroke-linejoin="round" filter="url(#soft)"/><path d="M-20 520 L-8 520 L4 521 L17 522 L29 524 L41 527 L53 530 L65 533 L78 536 L90 540 L102 545 L114 549 L126 554 L139 558 L151 563 L163 568 L175 573 L187 577 L200 582 L212 586 L224 590 L236 593 L248 596 L261 599 L273 601 L285 603 L297 605 L309 605 L322 606 L334 605 L346 605 L358 603 L370 602 L383 600 L395 597 L407 594 L419 591 L431 588 L444 584 L456 580 L468 576 L480 571 L492 567 L505 563 L517 558 L529 554 L541 550 L553 545 L566 541 L578 538 L590 534 L602 530 L614 527 L627 524 L639 521 L651 519 L663 516 L675 514 L688 512 L700 510 L712 508 L724 507 L736 505 L749 504 L761 502 L773 500 L785 499 L797 497 L810 495 L822 493 L834 491 L846 489 L858 487 L871 484 L883 482 L895 479 L907 476 L919 473 L932 469 L944 466 L956 463 L968 459 L980 455 L993 452 L1005 449 L1017 445 L1029 442 L1041 439 L1054 436 L1066 434 L1078 431 L1090 430 L1102 428 L1115 427 L1127 426 L1139 426 L1151 426 L1163 427 L1176 428 L1188 430 L1200 432 L1212 435 L1224 438 L1237 441 L1249 445 L1261 449 L1273 454 L1285 458 L1298 463 L1310 468 L1322 474 L1334 479 L1346 484 L1359 489 L1371 494 L1383 499 L1395 503 L1407 507 L1420 511 L1432 514 L1444 517 L1456 520 L1468 522 L1481 523 L1493 524 L1505 524 L1517 524 L1529 523 L1542 522 L1554 520" fill="none" stroke="url(#steelline)" stroke-width="2.6" opacity="1.0" stroke-linejoin="round" /><path d="M-20 520 L-8 520 L4 521 L17 522 L29 524 L41 527 L53 530 L65 533 L78 536 L90 540 L102 545 L114 549 L126 554 L139 558 L151 563 L163 568 L175 573 L187 577 L200 582 L212 586 L224 590 L236 593 L248 596 L261 599 L273 601 L285 603 L297 605 L309 605 L322 606 L334 605 L346 605 L358 603 L370 602 L383 600 L395 597 L407 594 L419 591 L431 588 L444 584 L456 580 L468 576 L480 571 L492 567 L505 563 L517 558 L529 554 L541 550 L553 545 L566 541 L578 538 L590 534 L602 530 L614 527 L627 524 L639 521 L651 519 L663 516 L675 514 L688 512 L700 510 L712 508 L724 507 L736 505 L749 504 L761 502 L773 500 L785 499 L797 497 L810 495 L822 493 L834 491 L846 489 L858 487 L871 484 L883 482 L895 479 L907 476 L919 473 L932 469 L944 466 L956 463 L968 459 L980 455 L993 452 L1005 449 L1017 445 L1029 442 L1041 439 L1054 436 L1066 434 L1078 431 L1090 430 L1102 428 L1115 427 L1127 426 L1139 426 L1151 426 L1163 427 L1176 428 L1188 430 L1200 432 L1212 435 L1224 438 L1237 441 L1249 445 L1261 449 L1273 454 L1285 458 L1298 463 L1310 468 L1322 474 L1334 479 L1346 484 L1359 489 L1371 494 L1383 499 L1395 503 L1407 507 L1420 511 L1432 514 L1444 517 L1456 520 L1468 522 L1481 523 L1493 524 L1505 524 L1517 524 L1529 523 L1542 522 L1554 520" fill="none" stroke="url(#steelline)" stroke-width="1.0" opacity="0.9" stroke-linejoin="round" /><path d="M-20 560 L-8 563 L4 565 L17 567 L29 570 L41 571 L53 573 L65 575 L78 576 L90 577 L102 577 L114 578 L126 578 L139 578 L151 577 L163 577 L175 576 L187 575 L200 574 L212 572 L224 571 L236 569 L248 567 L261 565 L273 563 L285 562 L297 560 L309 558 L322 556 L334 554 L346 552 L358 551 L370 549 L383 547 L395 546 L407 545 L419 543 L431 542 L444 541 L456 540 L468 539 L480 538 L492 537 L505 536 L517 534 L529 533 L541 532 L553 531 L566 529 L578 528 L590 526 L602 524 L614 522 L627 520 L639 518 L651 515 L663 513 L675 510 L688 508 L700 505 L712 502 L724 499 L736 497 L749 494 L761 491 L773 489 L785 486 L797 484 L810 482 L822 480 L834 478 L846 477 L858 476 L871 475 L883 475 L895 475 L907 476 L919 477 L932 479 L944 480 L956 483 L968 486 L980 489 L993 492 L1005 496 L1017 501 L1029 505 L1041 510 L1054 516 L1066 521 L1078 527 L1090 532 L1102 538 L1115 544 L1127 550 L1139 555 L1151 561 L1163 566 L1176 571 L1188 576 L1200 581 L1212 585 L1224 589 L1237 592 L1249 595 L1261 597 L1273 599 L1285 601 L1298 602 L1310 603 L1322 603 L1334 603 L1346 602 L1359 601 L1371 600 L1383 598 L1395 596 L1407 593 L1420 591 L1432 588 L1444 585 L1456 582 L1468 579 L1481 576 L1493 573 L1505 570 L1517 567 L1529 565 L1542 562 L1554 560" fill="none" stroke="url(#steelline)" stroke-width="1.4" opacity="0.5" stroke-linejoin="round" /><path d="M-20 480 L-8 480 L4 480 L17 480 L29 479 L41 478 L53 477 L65 475 L78 474 L90 472 L102 470 L114 468 L126 466 L139 464 L151 462 L163 460 L175 458 L187 456 L200 454 L212 452 L224 450 L236 448 L248 446 L261 444 L273 442 L285 440 L297 438 L309 436 L322 434 L334 432 L346 429 L358 427 L370 424 L383 421 L395 418 L407 414 L419 411 L431 407 L444 403 L456 399 L468 394 L480 390 L492 385 L505 381 L517 376 L529 372 L541 368 L553 364 L566 360 L578 356 L590 353 L602 350 L614 348 L627 346 L639 345 L651 345 L663 345 L675 346 L688 348 L700 350 L712 353 L724 358 L736 363 L749 369 L761 375 L773 383 L785 391 L797 400 L810 410 L822 420 L834 431 L846 442 L858 454 L871 466 L883 478 L895 490 L907 503 L919 515 L932 527 L944 539 L956 550 L968 561 L980 572 L993 582 L1005 591 L1017 599 L1029 607 L1041 613 L1054 619 L1066 624 L1078 627 L1090 630 L1102 632 L1115 633 L1127 632 L1139 631 L1151 629 L1163 626 L1176 622 L1188 618 L1200 613 L1212 607 L1224 601 L1237 594 L1249 587 L1261 579 L1273 572 L1285 564 L1298 556 L1310 548 L1322 541 L1334 533 L1346 526 L1359 520 L1371 513 L1383 507 L1395 502 L1407 497 L1420 493 L1432 489 L1444 486 L1456 483 L1468 481 L1481 479 L1493 478 L1505 478 L1517 478 L1529 478 L1542 479 L1554 480" fill="none" stroke="url(#steelline)" stroke-width="1.1" opacity="0.35" stroke-linejoin="round" /><circle cx="504" cy="196" r="2.0" fill="#9cc0e6" opacity="0.15"/><circle cx="822" cy="391" r="1.1" fill="#9cc0e6" opacity="0.31"/><circle cx="76" cy="452" r="1.1" fill="#9cc0e6" opacity="0.15"/><circle cx="655" cy="807" r="1.2" fill="#9cc0e6" opacity="0.20"/><circle cx="959" cy="917" r="1.9" fill="#9cc0e6" opacity="0.27"/><circle cx="1480" cy="102" r="2.4" fill="#9cc0e6" opacity="0.23"/><circle cx="236" cy="166" r="1.5" fill="#9cc0e6" opacity="0.43"/><circle cx="290" cy="586" r="2.0" fill="#9cc0e6" opacity="0.26"/><circle cx="839" cy="117" r="1.1" fill="#9cc0e6" opacity="0.20"/><circle cx="1038" cy="447" r="1.5" fill="#9cc0e6" opacity="0.34"/><circle cx="698" cy="331" r="2.3" fill="#9cc0e6" opacity="0.39"/><circle cx="385" cy="579" r="1.8" fill="#9cc0e6" opacity="0.45"/><circle cx="1111" cy="320" r="2.6" fill="#9cc0e6" opacity="0.16"/><circle cx="646" cy="744" r="1.2" fill="#9cc0e6" opacity="0.31"/><circle cx="79" cy="664" r="2.2" fill="#9cc0e6" opacity="0.34"/><circle cx="1330" cy="344" r="2.1" fill="#9cc0e6" opacity="0.35"/><circle cx="888" cy="472" r="2.3" fill="#9cc0e6" opacity="0.48"/><circle cx="729" cy="660" r="1.1" fill="#9cc0e6" opacity="0.39"/><circle cx="988" cy="958" r="2.3" fill="#9cc0e6" opacity="0.23"/><circle cx="597" cy="664" r="1.0" fill="#9cc0e6" opacity="0.30"/><circle cx="271" cy="166" r="1.1" fill="#9cc0e6" opacity="0.41"/><circle cx="213" cy="284" r="1.6" fill="#9cc0e6" opacity="0.45"/><circle cx="141" cy="466" r="1.9" fill="#9cc0e6" opacity="0.46"/><circle cx="1246" cy="841" r="1.4" fill="#9cc0e6" opacity="0.28"/><circle cx="557" cy="859" r="2.5" fill="#9cc0e6" opacity="0.18"/><circle cx="284" cy="270" r="1.4" fill="#9cc0e6" opacity="0.30"/><circle cx="901" cy="298" r="1.0" fill="#9cc0e6" opacity="0.28"/><circle cx="572" cy="572" r="2.5" fill="#9cc0e6" opacity="0.38"/><circle cx="791" cy="618" r="2.1" fill="#9cc0e6" opacity="0.14"/><circle cx="1366" cy="765" r="2.4" fill="#9cc0e6" opacity="0.42"/><circle cx="607" cy="421" r="1.2" fill="#9cc0e6" opacity="0.36"/><circle cx="113" cy="121" r="1.3" fill="#9cc0e6" opacity="0.18"/><circle cx="529" cy="108" r="1.0" fill="#9cc0e6" opacity="0.18"/><circle cx="172" cy="389" r="1.0" fill="#9cc0e6" opacity="0.45"/><circle cx="939" cy="194" r="1.4" fill="#9cc0e6" opacity="0.25"/><circle cx="565" cy="171" r="2.4" fill="#9cc0e6" opacity="0.50"/><circle cx="717" cy="497" r="1.1" fill="#9cc0e6" opacity="0.16"/><circle cx="533" cy="299" r="2.3" fill="#9cc0e6" opacity="0.18"/><circle cx="55" cy="920" r="1.8" fill="#9cc0e6" opacity="0.18"/><circle cx="833" cy="84" r="1.8" fill="#9cc0e6" opacity="0.49"/><circle cx="1312" cy="689" r="1.4" fill="#9cc0e6" opacity="0.26"/><circle cx="270" cy="758" r="1.9" fill="#9cc0e6" opacity="0.42"/><circle cx="513" cy="262" r="2.3" fill="#9cc0e6" opacity="0.49"/><circle cx="1296" cy="789" r="2.3" fill="#9cc0e6" opacity="0.40"/><circle cx="359" cy="528" r="1.6" fill="#9cc0e6" opacity="0.13"/><circle cx="62" cy="313" r="1.4" fill="#9cc0e6" opacity="0.38"/><circle cx="1451" cy="464" r="2.5" fill="#9cc0e6" opacity="0.50"/><circle cx="1449" cy="390" r="1.4" fill="#9cc0e6" opacity="0.21"/><circle cx="314" cy="245" r="2.0" fill="#9cc0e6" opacity="0.46"/><circle cx="1277" cy="493" r="2.0" fill="#9cc0e6" opacity="0.42"/><circle cx="147" cy="657" r="2.5" fill="#9cc0e6" opacity="0.42"/><circle cx="1142" cy="492" r="1.3" fill="#9cc0e6" opacity="0.42"/><circle cx="517" cy="784" r="2.6" fill="#9cc0e6" opacity="0.27"/><circle cx="620" cy="916" r="2.2" fill="#9cc0e6" opacity="0.18"/><circle cx="210" cy="197" r="2.4" fill="#9cc0e6" opacity="0.43"/><circle cx="239" cy="807" r="2.6" fill="#9cc0e6" opacity="0.37"/><circle cx="544" cy="556" r="1.2" fill="#9cc0e6" opacity="0.13"/><circle cx="1472" cy="647" r="1.8" fill="#9cc0e6" opacity="0.47"/><circle cx="669" cy="848" r="2.3" fill="#9cc0e6" opacity="0.20"/><circle cx="397" cy="325" r="1.4" fill="#9cc0e6" opacity="0.34"/><circle cx="408" cy="439" r="1.2" fill="#9cc0e6" opacity="0.47"/><circle cx="549" cy="474" r="1.9" fill="#9cc0e6" opacity="0.46"/><circle cx="649" cy="890" r="1.8" fill="#9cc0e6" opacity="0.32"/><circle cx="803" cy="77" r="1.7" fill="#9cc0e6" opacity="0.19"/><circle cx="26" cy="782" r="1.3" fill="#9cc0e6" opacity="0.30"/><circle cx="1105" cy="563" r="1.5" fill="#9cc0e6" opacity="0.32"/><circle cx="851" cy="769" r="1.2" fill="#9cc0e6" opacity="0.33"/><circle cx="392" cy="310" r="2.2" fill="#9cc0e6" opacity="0.31"/><circle cx="860" cy="747" r="2.5" fill="#9cc0e6" opacity="0.29"/><circle cx="936" cy="517" r="1.8" fill="#9cc0e6" opacity="0.38"/><circle cx="697" cy="542" r="1.8" fill="#9cc0e6" opacity="0.48"/><circle cx="1066" cy="852" r="2.5" fill="#9cc0e6" opacity="0.22"/><circle cx="857" cy="913" r="2.3" fill="#9cc0e6" opacity="0.17"/><circle cx="202" cy="460" r="1.1" fill="#9cc0e6" opacity="0.21"/><circle cx="129" cy="665" r="2.3" fill="#9cc0e6" opacity="0.46"/><circle cx="251" cy="707" r="2.1" fill="#9cc0e6" opacity="0.17"/><circle cx="1341" cy="935" r="1.4" fill="#9cc0e6" opacity="0.48"/><circle cx="616" cy="500" r="2.6" fill="#9cc0e6" opacity="0.44"/><circle cx="262" cy="450" r="1.8" fill="#9cc0e6" opacity="0.25"/><circle cx="313" cy="348" r="2.2" fill="#9cc0e6" opacity="0.13"/><circle cx="849" cy="458" r="1.0" fill="#9cc0e6" opacity="0.25"/><circle cx="953" cy="523" r="1.1" fill="#9cc0e6" opacity="0.49"/><circle cx="1199" cy="938" r="1.2" fill="#9cc0e6" opacity="0.22"/><circle cx="79" cy="764" r="1.4" fill="#9cc0e6" opacity="0.17"/><circle cx="652" cy="884" r="2.3" fill="#9cc0e6" opacity="0.22"/><circle cx="243" cy="891" r="1.9" fill="#9cc0e6" opacity="0.39"/><circle cx="154" cy="112" r="2.1" fill="#9cc0e6" opacity="0.28"/><circle cx="128" cy="908" r="2.0" fill="#9cc0e6" opacity="0.42"/><circle cx="145" cy="834" r="1.1" fill="#9cc0e6" opacity="0.45"/><circle cx="699" cy="367" r="1.9" fill="#9cc0e6" opacity="0.47"/><circle cx="300" cy="455" r="5" fill="#f5f3ee"><animate attributeName="opacity" values="0.2;1;0.2" dur="4s" begin="0s" repeatCount="indefinite"/></circle><circle cx="300" cy="455" r="14" fill="none" stroke="#9cc0e6" stroke-opacity="0.5"><animate attributeName="r" values="6;22" dur="4s" begin="0s" repeatCount="indefinite"/><animate attributeName="stroke-opacity" values="0.6;0" dur="4s" begin="0s" repeatCount="indefinite"/></circle><circle cx="760" cy="610" r="5" fill="#f5f3ee"><animate attributeName="opacity" values="0.2;1;0.2" dur="4s" begin="1.2s" repeatCount="indefinite"/></circle><circle cx="760" cy="610" r="14" fill="none" stroke="#9cc0e6" stroke-opacity="0.5"><animate attributeName="r" values="6;22" dur="4s" begin="1.2s" repeatCount="indefinite"/><animate attributeName="stroke-opacity" values="0.6;0" dur="4s" begin="1.2s" repeatCount="indefinite"/></circle><circle cx="1180" cy="470" r="5" fill="#f5f3ee"><animate attributeName="opacity" values="0.2;1;0.2" dur="4s" begin="2.3s" repeatCount="indefinite"/></circle><circle cx="1180" cy="470" r="14" fill="none" stroke="#9cc0e6" stroke-opacity="0.5"><animate attributeName="r" values="6;22" dur="4s" begin="2.3s" repeatCount="indefinite"/><animate attributeName="stroke-opacity" values="0.6;0" dur="4s" begin="2.3s" repeatCount="indefinite"/></circle><rect width="1536" height="1024" fill="none"/>
<radialGradient id="vig" cx="50%" cy="50%" r="75%">
  <stop offset="60%" stop-color="#000" stop-opacity="0"/>
  <stop offset="100%" stop-color="#05080f" stop-opacity="0.55"/>
</radialGradient>
<rect width="1536" height="1024" fill="url(#vig)"/>
<rect width="1536" height="1024" fill="#fff" opacity="0.012"/>
</svg>